#!OML:ASF I:\Actors\actors\Patient Classification 2\Patient 1\Session 1\actor1.ASF
:FULLY-SPECIFIED
:DEGREES
411
root -0.694534 18.7143 5.50073 2.44119 -3.43414 -1.58999
lowerback 2.12832 1.82982 -0.613255
upperback 0.452245 2.42328 -0.227821
thorax -0.744384 1.21204 0.0436536
lowerneck 5.45414 -2.07039 -3.78934
upperneck 13.076 -3.36521 5.16596
head 3.48219 -1.68729 2.33323
rclavicle -4.89507e-015 4.37326e-015
rhumerus -10.4527 35.3882 -58.578
rradius 143.305
rwrist -13.9453
rhand -15.0591 -26.8171
rfingers 7.12502
rthumb 11.1077 -56.5031
lclavicle -4.89507e-015 4.37326e-015
lhumerus -0.526652 -41.6755 56.9908
lradius 140.836
lwrist 28.495
lhand -20.7051 -33.8055
lfingers 7.12502
lthumb 5.65907 -3.9011
rfemur 0 0 0
rtibia 0
rfoot 0 0
rtoes 0
lfemur -4.69014 -7.86549 -12.9968
ltibia 20.9228
lfoot -25.2491 17.807
ltoes -53.5842
412
root -0.695654 18.7155 5.49558 2.44641 -3.46097 -1.58368
lowerback 2.19699 1.84024 -0.655771
upperback 0.602019 2.43617 -0.240365
thorax -0.630776 1.21802 0.0550175
lowerneck 5.40793 -2.00005 -3.66789
upperneck 13.2617 -3.26956 5.13103
head 3.54675 -1.63345 2.3019
rclavicle 1.42876e-014 -1.15295e-014
rhumerus -10.3942 35.6235 -58.4288
rradius 143.179
rwrist -13.0513
rhand -15.5658 -26.6888
rfingers 7.12502
rthumb 10.619 -56.4005
lclavicle 1.42876e-014 -1.15295e-014
lhumerus -0.328036 -41.4474 56.6115
lradius 140.743
lwrist 28.9326
lhand -20.6746 -33.9718
lfingers 7.12502
lthumb 5.68849 -4.0682
rfemur 0 0 0
rtibia 0
rfoot 0 0
rtoes 0
lfemur -4.70194 -7.85883 -12.9981
ltibia 20.917
lfoot -25.2584 17.8168
ltoes -53.574
413
root -0.696025 18.7165 5.48913 2.43592 -3.51111 -1.56168
lowerback 2.32497 1.85491 -0.678473
upperback 0.713113 2.45416 -0.288464
thorax -0.587592 1.22668 0.0158793
lowerneck 5.4624 -1.9162 -3.4661
upperneck 13.4068 -3.15174 5.06463
head 3.57464 -1.56725 2.24577
rclavicle 3.13086e-014 -3.18055e-015
rhumerus -10.3573 35.733 -58.3577
rradius 143.092
rwrist -12.7677
rhand -15.6221 -26.6146
rfingers 7.12502
rthumb 10.5647 -56.3291
lclavicle 3.13086e-014 -3.18055e-015
lhumerus -0.186315 -41.2565 56.2304
lradius 140.673
lwrist 29.3168
lhand -20.7855 -34.012
lfingers 7.12502
lthumb 5.58144 -4.1055
rfemur 0 0 0
rtibia 0
rfoot 0 0
rtoes 0
lfemur -4.6983 -7.82502 -13.0232
ltibia 20.9144
lfoot -25.2316 17.8411
ltoes -53.6087
414
root -0.697451 18.7173 5.48169 2.41159 -3.56106 -1.54663
lowerback 2.47859 1.86824 -0.698779
upperback 0.831412 2.47025 -0.319903
thorax -0.551955 1.2344 -0.00832804
lowerneck 5.4382 -1.84215 -3.41592
upperneck 13.618 -3.06362 5.11978
head 3.64973 -1.51788 2.25894
rclavicle 7.20594e-016 0
rhumerus -10.1994 35.686 -58.1684
rradius 143.077
rwrist -13.1896
rhand -15.4171 -26.6706
rfingers 7.12502
rthumb 10.7625 -56.3749
lclavicle 7.20594e-016 0
lhumerus -0.0907553 -41.105 55.9241
lradius 140.627
lwrist 29.7122
lhand -20.9743 -33.8732
lfingers 7.12502
lthumb 5.39912 -3.96199
rfemur 0 0 0
rtibia 0
rfoot 0 0
rtoes 0
lfemur -4.6938 -7.73724 -13.0316
ltibia 20.9239
lfoot -25.2064 17.8109
ltoes -53.5502
415
root -0.699492 18.7186 5.47417 2.39131 -3.56485 -1.55499
lowerback 2.60209 1.86717 -0.720946
upperback 0.989125 2.46795 -0.306761
thorax -0.46103 1.23268 0.0165423
lowerneck 5.45693 -1.78598 -3.44544
upperneck 13.7065 -2.99785 5.17725
head 3.67664 -1.48459 2.28619
rclavicle -4.44781e-015 -3.18055e-015
rhumerus -9.86941 35.5574 -57.7858
rradius 143.058
rwrist -13.7978
rhand -15.2296 -26.7317
rfingers 7.12502
rthumb 10.9433 -56.4265
lclavicle -4.44781e-015 -3.18055e-015
lhumerus 0.0629504 -40.9441 55.7057
lradius 140.593
lwrist 30.2493
lhand -21.1538 -33.6699
lfingers 7.12502
lthumb 5.2259 -3.75432
rfemur 0 0 0
rtibia 0
rfoot 0 0
rtoes 0
lfemur -4.71353 -7.65753 -13.0021
ltibia 20.941
lfoot -25.1553 17.7632
ltoes -53.4857
